<?xml version="1.0" encoding="UTF-8" standalone="no"?>
<!-- Created with Inkscape (http://www.inkscape.org/) -->
<svg
   xmlns:dc="http://purl.org/dc/elements/1.1/"
   xmlns:cc="http://creativecommons.org/ns#"
   xmlns:rdf="http://www.w3.org/1999/02/22-rdf-syntax-ns#"
   xmlns:svg="http://www.w3.org/2000/svg"
   xmlns="http://www.w3.org/2000/svg"
   xmlns:sodipodi="http://sodipodi.sourceforge.net/DTD/sodipodi-0.dtd"
   xmlns:inkscape="http://www.inkscape.org/namespaces/inkscape"
   width="373.9375"
   height="379.8125"
   id="svg2"
   sodipodi:version="0.32"
   inkscape:version="0.46"
   sodipodi:docname="Кораблик.svg"
   inkscape:output_extension="org.inkscape.output.svg.inkscape"
   version="1.0">
  <defs
     id="defs4">
    <linearGradient
       id="linearGradient3460">
      <stop
         style="stop-color:#f3dc36;stop-opacity:1"
         offset="0"
         id="stop3462" />
      <stop
         id="stop3468"
         offset="0.5"
         style="stop-color:#ffff00;stop-opacity:1" />
      <stop
         style="stop-color:#f3dc36;stop-opacity:1"
         offset="1"
         id="stop3464" />
    </linearGradient>
    <inkscape:perspective
       sodipodi:type="inkscape:persp3d"
       inkscape:vp_x="0 : 526.18109 : 1"
       inkscape:vp_y="0 : 1000 : 0"
       inkscape:vp_z="744.09448 : 526.18109 : 1"
       inkscape:persp3d-origin="372.04724 : 350.78739 : 1"
       id="perspective10" />
    <inkscape:perspective
       id="perspective2390"
       inkscape:persp3d-origin="372.04724 : 350.78739 : 1"
       inkscape:vp_z="744.09448 : 526.18109 : 1"
       inkscape:vp_y="0 : 1000 : 0"
       inkscape:vp_x="0 : 526.18109 : 1"
       sodipodi:type="inkscape:persp3d" />
    <inkscape:perspective
       id="perspective2403"
       inkscape:persp3d-origin="372.04724 : 350.78739 : 1"
       inkscape:vp_z="744.09448 : 526.18109 : 1"
       inkscape:vp_y="0 : 1000 : 0"
       inkscape:vp_x="0 : 526.18109 : 1"
       sodipodi:type="inkscape:persp3d" />
    <inkscape:perspective
       sodipodi:type="inkscape:persp3d"
       inkscape:vp_x="0 : 526.18109 : 1"
       inkscape:vp_y="0 : 1000 : 0"
       inkscape:vp_z="744.09448 : 526.18109 : 1"
       inkscape:persp3d-origin="372.04724 : 350.78739 : 1"
       id="perspective2422" />
    <inkscape:perspective
       id="perspective2424"
       inkscape:persp3d-origin="372.04724 : 350.78739 : 1"
       inkscape:vp_z="744.09448 : 526.18109 : 1"
       inkscape:vp_y="0 : 1000 : 0"
       inkscape:vp_x="0 : 526.18109 : 1"
       sodipodi:type="inkscape:persp3d" />
    <inkscape:perspective
       id="perspective3436"
       inkscape:persp3d-origin="372.04724 : 350.78739 : 1"
       inkscape:vp_z="744.09448 : 526.18109 : 1"
       inkscape:vp_y="0 : 1000 : 0"
       inkscape:vp_x="0 : 526.18109 : 1"
       sodipodi:type="inkscape:persp3d" />
    <inkscape:perspective
       id="perspective2416"
       inkscape:persp3d-origin="372.04724 : 350.78739 : 1"
       inkscape:vp_z="744.09448 : 526.18109 : 1"
       inkscape:vp_y="0 : 1000 : 0"
       inkscape:vp_x="0 : 526.18109 : 1"
       sodipodi:type="inkscape:persp3d" />
    <inkscape:perspective
       id="perspective2429"
       inkscape:persp3d-origin="372.04724 : 350.78739 : 1"
       inkscape:vp_z="744.09448 : 526.18109 : 1"
       inkscape:vp_y="0 : 1000 : 0"
       inkscape:vp_x="0 : 526.18109 : 1"
       sodipodi:type="inkscape:persp3d" />
    <inkscape:perspective
       id="perspective2442"
       inkscape:persp3d-origin="372.04724 : 350.78739 : 1"
       inkscape:vp_z="744.09448 : 526.18109 : 1"
       inkscape:vp_y="0 : 1000 : 0"
       inkscape:vp_x="0 : 526.18109 : 1"
       sodipodi:type="inkscape:persp3d" />
    <inkscape:perspective
       id="perspective2455"
       inkscape:persp3d-origin="372.04724 : 350.78739 : 1"
       inkscape:vp_z="744.09448 : 526.18109 : 1"
       inkscape:vp_y="0 : 1000 : 0"
       inkscape:vp_x="0 : 526.18109 : 1"
       sodipodi:type="inkscape:persp3d" />
    <inkscape:perspective
       sodipodi:type="inkscape:persp3d"
       inkscape:vp_x="0 : 526.18109 : 1"
       inkscape:vp_y="0 : 1000 : 0"
       inkscape:vp_z="744.09448 : 526.18109 : 1"
       inkscape:persp3d-origin="372.04724 : 350.78739 : 1"
       id="perspective3430" />
    <inkscape:perspective
       id="perspective3428"
       inkscape:persp3d-origin="372.04724 : 350.78739 : 1"
       inkscape:vp_z="744.09448 : 526.18109 : 1"
       inkscape:vp_y="0 : 1000 : 0"
       inkscape:vp_x="0 : 526.18109 : 1"
       sodipodi:type="inkscape:persp3d" />
  </defs>
  <sodipodi:namedview
     id="base"
     pagecolor="#ffffff"
     bordercolor="#666666"
     borderopacity="1.0"
     gridtolerance="10000"
     guidetolerance="10"
     objecttolerance="10"
     inkscape:pageopacity="0.0"
     inkscape:pageshadow="2"
     inkscape:zoom="0.7"
     inkscape:cx="468.61521"
     inkscape:cy="388.98455"
     inkscape:document-units="px"
     inkscape:current-layer="layer1"
     showgrid="false"
     inkscape:window-width="1280"
     inkscape:window-height="904"
     inkscape:window-x="-4"
     inkscape:window-y="-4" />
  <metadata
     id="metadata7">
    <rdf:RDF>
      <cc:Work
         rdf:about="">
        <dc:format>image/svg+xml</dc:format>
        <dc:type
           rdf:resource="http://purl.org/dc/dcmitype/StillImage" />
      </cc:Work>
    </rdf:RDF>
  </metadata>
  <g
     inkscape:label="Layer 1"
     inkscape:groupmode="layer"
     id="layer1"
     transform="translate(-21.68304,-423.33035)">
    <path
       id="path3480"
       d="M 238.37054,423.33035 C 241.29796,423.33035 243.6518,425.13116 243.65179,427.3616 C 243.65179,428.96676 242.43285,430.33481 240.65179,430.9866 L 240.65179,439.9866 C 244.77251,446.37737 287.29374,512.32604 288.46429,513.9866 L 311.40179,513.9866 L 307.55804,508.89285 L 307.55804,506.64285 L 305.87054,506.64285 L 301.49554,500.8616 L 335.08929,500.8616 L 335.08929,490.45535 C 332.87698,489.81312 331.30804,488.15929 331.30804,486.20535 C 331.30804,483.69613 333.91432,481.64288 337.12054,481.64285 C 340.32676,481.64285 342.90179,483.69613 342.90179,486.20535 C 342.90179,488.15929 341.33285,489.81311 339.12054,490.45535 L 339.12054,524.45535 L 365.99554,547.0491 L 381.80804,547.0491 L 381.80804,551.6116 L 375.68304,551.6116 L 375.68304,595.95535 C 378.30847,595.05594 380.91889,594.15409 383.55804,593.26785 L 383.55804,598.20535 C 380.97475,600.03672 378.34148,601.77402 375.68304,603.64285 L 375.68304,627.70535 L 385.08929,627.70535 L 387.74554,619.95535 C 386.29792,619.25252 385.33929,618.03081 385.33929,616.6116 C 385.33929,614.41839 387.63035,612.64285 390.46429,612.64285 C 393.29822,612.64285 395.62054,614.41839 395.62054,616.6116 C 395.62054,618.45113 393.97075,619.9724 391.77679,620.4241 L 373.93304,683.14285 C 362.74273,692.87659 339.37993,717.8538 361.15179,728.0491 L 355.87054,746.64285 L 242.90179,746.64285 L 242.90179,771.3616 C 250.08571,773.48601 255.27679,779.59832 255.27679,786.83035 C 255.27679,795.82172 247.23676,803.14285 237.33929,803.14285 C 227.44182,803.14285 219.43304,795.82171 219.43304,786.83035 C 219.43304,779.59833 224.62412,773.486 231.80804,771.3616 L 231.80804,746.64285 L 128.37054,746.64285 C 128.1971,742.4288 118.12324,727.03246 112.24554,720.6741 C 100.28831,707.73902 85.84625,691.5127 84.08929,686.2991 C 82.0297,680.18746 84.55804,671.2991 84.55804,671.2991 L 51.93304,637.3616 L 55.65179,633.6741 L 55.65179,618.76785 L 21.68304,618.76785 L 25.87054,613.2366 L 26.99554,613.2366 L 26.99554,611.76785 L 30.27679,607.4241 L 26.99554,602.8616 L 26.99554,600.8616 L 25.55804,600.8616 L 21.93304,595.7991 L 55.65179,595.7991 L 55.65179,587.1741 C 53.81852,586.52579 52.49554,584.84661 52.49554,582.8616 C 52.49554,580.31753 54.65942,578.23661 57.30804,578.2366 C 59.22716,578.2366 60.85329,579.32794 61.62054,580.89285 L 79.12054,580.89285 C 79.63129,571.72405 83.4042,562.5304 86.49554,553.3616 L 78.49554,553.3616 L 78.49554,549.33035 L 93.12054,549.33035 L 92.90179,549.08035 L 122.96429,522.33035 L 122.96429,517.64285 L 84.43304,517.64285 L 88.68304,512.08035 L 90.12054,512.08035 L 90.12054,510.20535 L 93.90179,505.26785 L 90.12054,500.2991 L 90.12054,498.45535 L 88.71429,498.45535 L 84.18304,492.51785 L 123.08929,492.51785 L 123.08929,483.4866 C 121.03784,483.01655 119.55804,481.70151 119.55804,480.14285 C 119.55804,478.19124 121.85657,476.61161 124.71429,476.6116 C 127.57201,476.6116 129.90179,478.19126 129.90179,480.14285 C 129.90179,481.60656 128.60345,482.85589 126.74554,483.39285 L 126.74554,513.9866 L 184.68304,513.9866 L 219.18304,467.76785 L 219.80804,466.76785 L 195.93304,466.76785 L 200.02679,461.45535 L 202.74554,461.45535 L 202.74554,457.9241 L 206.27679,453.3616 L 202.74554,448.7991 L 202.74554,445.7991 L 200.43304,445.7991 L 195.93304,439.9866 L 236.21429,439.9866 L 236.58929,439.3616 L 236.58929,431.14285 C 234.54394,430.58214 233.05804,429.11229 233.05804,427.3616 C 233.05804,425.13118 235.44312,423.33036 238.37054,423.33035 z M 228.27679,445.08035 L 222.24554,451.08035 L 216.24554,445.08035 L 214.12054,447.20535 L 220.12054,453.20535 L 214.12054,459.20535 L 216.24554,461.33035 L 222.24554,455.33035 L 228.27679,461.33035 L 230.40179,459.20535 L 224.40179,453.20535 L 230.40179,447.20535 L 228.27679,445.08035 z M 240.90179,446.2991 L 240.65179,446.51785 L 240.65179,473.58035 C 243.03934,474.30317 244.68304,475.72147 244.68304,477.3616 C 244.68304,479.00174 243.03934,480.42003 240.65179,481.14285 L 240.65179,482.6741 L 268.83929,513.9866 L 283.33929,513.9866 L 240.90179,446.2991 z M 234.30804,466.76785 L 224.24554,466.76785 L 189.27679,513.9866 L 203.24554,513.9866 L 234.30804,482.95535 L 234.30804,481.3616 C 231.51005,480.73032 229.52679,479.17131 229.52679,477.3616 C 229.52679,475.5519 231.51005,473.99289 234.30804,473.3616 L 234.30804,466.76785 z M 240.65179,487.64285 L 240.65179,513.9866 L 263.27679,513.9866 L 240.65179,487.64285 z M 234.30804,487.7991 L 208.99554,513.9866 L 234.30804,513.9866 L 234.30804,487.7991 z M 116.27679,496.9866 L 110.24554,502.9866 L 104.24554,496.9866 L 102.12054,499.1116 L 108.12054,505.1116 L 102.12054,511.1116 L 104.24554,513.2366 L 110.24554,507.2366 L 116.27679,513.2366 L 118.40179,511.1116 L 112.40179,505.1116 L 118.40179,499.1116 L 116.27679,496.9866 z M 330.93304,505.83035 L 324.90179,511.83035 L 318.90179,505.83035 L 316.77679,507.95535 L 322.77679,513.95535 L 316.77679,519.95535 L 318.90179,522.08035 L 324.90179,516.08035 L 330.93304,522.08035 L 333.05804,519.95535 L 327.05804,513.95535 L 333.05804,507.95535 L 330.93304,505.83035 z M 309.12054,517.51785 L 286.83929,517.51785 L 286.87054,542.89285 C 286.88216,553.89868 292.95132,564.18524 296.49554,568.3616 C 298.7952,560.52556 301.87692,553.77099 302.90179,551.6116 L 294.93304,551.6116 L 294.93304,547.0491 L 308.71429,547.0491 L 334.24554,525.58035 L 303.02679,525.58035 L 306.08929,521.5491 L 307.55804,521.5491 L 307.55804,519.58035 L 309.12054,517.51785 z M 283.49554,517.51785 L 270.58929,517.51785 C 259.79355,533.88475 255.8825,572.54213 275.99554,593.76785 L 295.12054,593.76785 C 294.23053,590.03151 293.66308,586.24129 293.80804,582.9241 C 293.94539,579.78097 294.49905,576.48344 295.24554,573.2366 C 293.06296,570.23935 283.72837,559.30616 283.71429,543.01785 L 283.68304,517.89285 L 283.49554,517.51785 z M 263.27679,517.51785 L 240.65179,517.51785 L 240.65179,524.2991 C 257.07626,523.73975 261.88257,519.85847 263.27679,517.51785 z M 234.30804,517.51785 L 220.24554,517.51785 C 221.04687,519.41218 223.97344,523.34628 234.30804,524.1741 L 234.30804,517.51785 z M 216.68304,517.51785 L 198.21429,517.51785 C 199.04517,519.54527 201.27049,522.57045 207.30804,522.5491 C 213.73564,522.52574 215.79204,519.69216 216.68304,517.51785 z M 193.77679,517.51785 L 186.68304,517.51785 L 163.12054,549.33035 L 164.62054,549.33035 L 164.62054,553.3616 L 160.58929,553.3616 C 164.95106,568.081 169.85461,581.33508 175.05804,593.76785 L 194.24554,593.76785 C 189.20744,586.80813 179.55564,571.0961 180.02679,553.3616 C 180.54306,534.13377 190.75724,521.00325 193.77679,517.51785 z M 182.02679,517.51785 L 129.27679,517.51785 L 129.27679,522.01785 L 157.68304,549.33035 L 158.30804,549.33035 L 182.02679,517.51785 z M 129.27679,527.6116 L 129.27679,549.33035 L 152.68304,549.33035 L 129.27679,527.6116 z M 122.96429,528.26785 L 98.87054,549.33035 L 122.96429,549.33035 L 122.96429,528.26785 z M 339.12054,529.7366 L 339.12054,547.0491 L 359.71429,547.0491 L 339.12054,529.7366 z M 335.08929,530.14285 L 314.99554,547.0491 L 335.08929,547.0491 L 335.08929,530.14285 z M 372.83929,551.6116 L 372.46429,551.6116 C 371.16106,552.94495 357.62712,567.16783 357.93304,583.0491 C 358.08185,590.68364 362.79422,596.70767 365.46429,599.5491 C 367.90562,598.65982 370.36584,597.81384 372.83929,596.95535 L 372.83929,551.6116 z M 364.37054,551.6116 L 340.93304,551.6116 C 341.81314,553.08485 344.95657,557.44332 351.74554,557.6741 C 358.08843,557.88969 364.37054,551.6116 364.37054,551.6116 z M 333.37054,551.6116 L 310.96429,551.6116 C 311.37287,552.69087 313.04787,555.88942 318.43304,556.26785 C 324.54382,556.69727 332.20638,552.30113 333.37054,551.6116 z M 154.52679,553.3616 L 153.83929,553.3616 L 142.30804,553.3616 C 142.98644,559.67396 151.12456,556.02387 153.96429,553.83035 L 154.52679,553.3616 z M 137.18304,553.3616 L 129.27679,553.3616 L 129.27679,559.9241 C 132.33505,558.81292 135.1591,556.75167 137.18304,553.3616 z M 122.96429,553.3616 L 110.08929,553.3616 C 110.0145,557.20911 116.18409,560.84401 122.96429,560.95535 L 122.96429,553.3616 z M 107.05804,553.3616 L 91.80804,553.3616 C 95.04586,563.40619 105.76392,556.18963 107.05804,553.3616 z M 157.93304,557.83035 C 152.92286,566.93848 148.25096,579.55842 152.55804,593.76785 L 171.52679,593.76785 C 166.82175,582.62889 162.2724,570.78856 157.93304,557.83035 z M 242.90179,583.9241 L 242.90179,593.76785 L 264.02679,593.76785 L 263.62054,593.51785 C 259.35864,588.74663 250.95186,584.97426 242.90179,583.9241 z M 232.05804,584.4866 C 227.7843,585.77258 224.53188,588.53217 223.46429,593.26785 L 223.49554,593.76785 L 232.05804,593.76785 L 232.05804,584.4866 z M 79.12054,584.83035 L 61.62054,584.83035 C 61.20325,585.66852 60.5149,586.36529 59.68304,586.83035 L 59.68304,632.9866 L 66.05804,639.45535 L 66.37054,639.2366 L 88.58929,617.0491 C 83.35208,616.40516 78.51714,614.3552 74.33929,609.95535 L 72.43304,609.95535 L 72.43304,606.14285 L 122.96429,606.14285 L 122.96429,598.76785 C 118.25896,599.14486 113.58868,601.22377 111.08929,605.89285 L 107.80804,606.08035 C 107.10883,603.01351 97.51008,596.89847 91.12054,605.89285 L 88.87054,605.89285 C 82.16311,598.87006 79.51498,591.85315 79.12054,584.83035 z M 207.68304,586.6116 C 203.59869,586.48982 199.75336,588.5464 198.05804,593.76785 L 219.71429,593.76785 C 217.07458,589.58085 212.22201,586.74693 207.68304,586.6116 z M 49.08929,599.01785 L 43.05804,605.01785 L 37.05804,599.01785 L 34.93304,601.14285 L 40.93304,607.14285 L 34.93304,613.14285 L 37.05804,615.26785 L 43.05804,609.26785 L 49.08929,615.26785 L 51.21429,613.14285 L 45.21429,607.14285 L 51.21429,601.14285 L 49.08929,599.01785 z M 129.27679,599.26785 L 129.27679,606.14285 L 141.65179,606.14285 L 155.27679,606.14285 C 156.91355,605.71508 144.61021,596.39131 141.65179,606.14285 L 137.33929,606.01785 C 137.5511,602.97652 133.95598,600.36525 129.27679,599.26785 z M 297.43304,601.64285 C 294.73882,603.74335 292.02838,605.79883 288.46429,606.64285 L 304.18304,640.01785 C 307.57514,634.8594 311.5826,630.29126 316.08929,626.20535 L 302.49554,613.1116 L 302.49554,613.0491 C 301.75501,612.08967 299.46972,607.45216 297.43304,601.64285 z M 332.80804,601.8616 C 332.21684,601.8571 331.67187,601.86757 331.05804,601.8616 C 314.33858,601.69571 306.60997,610.68333 305.30804,612.3616 L 318.37054,624.20535 C 322.78918,620.48572 327.64062,617.17617 332.80804,614.1741 L 332.80804,601.8616 z M 341.40179,602.0491 L 341.40179,609.58035 C 344.97596,607.81979 348.66308,606.18443 352.43304,604.6116 C 349.60776,602.89484 345.98957,602.28414 341.40179,602.0491 z M 156.08929,602.1116 C 156.81623,603.43984 157.62086,604.79706 158.52679,606.14285 L 164.62054,606.14285 L 164.68304,610.08035 L 160.58929,610.08035 C 160.48315,610.2052 160.38363,610.33148 160.27679,610.45535 L 169.30804,629.08035 L 182.37054,618.08035 C 180.52522,614.10957 178.69442,610.0974 176.87054,606.01785 C 170.36061,606.29521 163.93164,606.30791 158.55804,602.6116 C 157.76961,602.37733 156.93969,602.2349 156.08929,602.1116 z M 372.83929,605.70535 C 365.97526,610.79623 359.20267,617.08098 353.46429,627.70535 L 372.83929,627.70535 L 372.83929,605.70535 z M 180.52679,606.3616 C 181.98252,609.60012 183.45467,612.79035 184.93304,615.95535 L 193.02679,609.1116 C 188.74605,609.5909 184.55972,608.84445 180.52679,606.3616 z M 282.80804,606.9241 C 278.56202,609.84265 274.48236,610.79422 270.49554,610.8616 L 294.90179,667.01785 L 297.30804,667.01785 C 297.65681,657.96377 303.60077,658.08035 307.65179,658.08035 L 309.18304,658.08035 C 308.97443,657.64611 306.49842,652.36178 305.46429,650.1741 C 302.71551,651.32287 299.93137,652.63207 297.08929,654.14285 C 298.51426,650.24718 300.22139,646.61951 302.18304,643.2366 C 295.20709,628.45836 286.993,611.08191 285.08929,607.0491 C 284.36526,607.05254 283.60342,607.02372 282.80804,606.9241 z M 222.46429,608.4241 C 218.77571,610.65104 215.1431,611.70965 211.52679,611.9866 C 215.02635,627.02722 222.0423,647.01552 232.05804,653.5491 L 232.05804,614.76785 C 227.82989,613.84677 224.27134,611.88587 222.46429,608.4241 z M 261.08929,609.83035 L 263.24554,614.76785 L 268.96429,614.76785 L 267.21429,610.7366 C 265.16577,610.54973 263.1201,610.21203 261.08929,609.83035 z M 197.18304,609.83035 L 186.30804,618.89285 C 193.47812,634.10657 200.81973,648.71613 207.74554,664.14285 L 232.05804,664.14285 L 232.05804,657.7366 C 223.10506,650.14197 214.71844,640.94187 208.58929,612.0491 C 204.76763,611.92213 200.96915,611.02412 197.18304,609.83035 z M 258.15179,610.45535 C 257.23329,611.22198 255.76396,611.98451 253.99554,612.6741 L 254.87054,614.76785 L 260.02679,614.76785 L 258.15179,610.45535 z M 158.24554,612.6741 C 155.41685,615.58303 152.19216,617.95407 148.12054,619.1116 L 158.12054,638.51785 L 166.99554,631.01785 L 158.24554,612.6741 z M 251.18304,613.6116 C 249.93404,613.97473 248.58551,614.31156 247.18304,614.58035 L 247.24554,614.76785 L 251.65179,614.76785 L 251.18304,613.6116 z M 108.05804,614.7366 C 102.94095,616.15404 97.9313,617.15809 93.18304,617.26785 C 94.95755,624.77727 97.55651,631.26103 100.58929,637.08035 L 117.40179,618.2991 C 113.95868,617.75669 110.77917,616.72297 108.05804,614.7366 z M 244.15179,615.0491 C 243.73985,615.10065 243.31802,615.16453 242.90179,615.20535 L 242.90179,664.14285 L 262.90179,664.14285 L 244.15179,615.0491 z M 269.87054,616.83035 L 264.15179,616.83035 L 266.90179,623.14285 L 272.62054,623.14285 L 269.87054,616.83035 z M 260.93304,616.83035 L 255.71429,616.83035 L 258.30804,623.14285 L 263.68304,623.14285 L 260.93304,616.83035 z M 252.49554,616.83035 L 248.02679,616.83035 L 250.43304,623.14285 L 255.08929,623.14285 L 252.49554,616.83035 z M 134.96429,618.76785 C 133.79262,618.76333 132.58431,618.78191 131.40179,618.7991 L 133.33929,623.33035 L 138.99554,623.33035 L 137.27679,619.33035 C 136.5247,619.18129 135.76222,618.98149 134.96429,618.76785 z M 91.40179,618.76785 C 88.26495,621.67306 71.22664,638.80254 68.30804,641.7366 L 82.99554,656.6741 L 98.71429,639.14285 C 93.83121,629.79372 90.73961,621.32537 91.40179,618.76785 z M 129.12054,618.83035 C 128.91121,618.83333 128.70469,618.85899 128.49554,618.8616 L 128.49554,663.4241 L 142.33929,651.76785 L 129.02679,619.0491 L 129.12054,618.83035 z M 145.55804,619.6741 C 143.89813,619.90635 142.08332,619.93113 140.12054,619.7366 L 141.68304,623.33035 L 147.33929,623.33035 L 145.55804,619.6741 z M 120.80804,619.76785 L 102.27679,640.20535 C 107.50297,649.36732 113.75635,656.8697 119.43304,664.14285 L 120.80804,664.14285 L 120.80804,619.76785 z M 183.74554,621.0491 L 170.68304,631.95535 L 186.30804,664.14285 L 203.96429,664.14285 C 197.30839,649.35909 190.47857,635.44054 183.74554,621.0491 z M 147.87054,624.45535 L 142.15179,624.45535 L 145.30804,631.6741 L 151.37054,631.6741 L 147.87054,624.45535 z M 139.46429,624.45535 L 133.80804,624.45535 L 136.87054,631.6741 L 142.52679,631.6741 L 139.46429,624.45535 z M 273.49554,625.20535 L 267.77679,625.20535 L 270.52679,631.51785 L 276.24554,631.51785 L 273.49554,625.20535 z M 264.55804,625.20535 L 259.15179,625.20535 L 261.74554,631.51785 L 267.30804,631.51785 L 264.55804,625.20535 z M 255.93304,625.20535 L 251.21429,625.20535 L 253.62054,631.51785 L 258.52679,631.51785 L 255.93304,625.20535 z M 375.37054,630.33035 L 369.33929,636.33035 L 363.33929,630.33035 L 361.21429,632.45535 L 367.21429,638.45535 L 361.21429,644.45535 L 363.33929,646.58035 L 369.33929,640.58035 L 375.37054,646.58035 L 377.49554,644.45535 L 371.49554,638.45535 L 377.49554,632.45535 L 375.37054,630.33035 z M 151.93304,632.7991 L 145.80804,632.7991 L 148.96429,639.9866 L 155.40179,639.9866 L 151.93304,632.7991 z M 143.02679,632.7991 L 137.37054,632.7991 L 140.43304,639.9866 L 146.08929,639.9866 L 143.02679,632.7991 z M 277.12054,633.58035 L 271.40179,633.58035 L 274.15179,639.89285 L 279.87054,639.89285 L 277.12054,633.58035 z M 268.18304,633.58035 L 262.58929,633.58035 L 265.18304,639.89285 L 270.93304,639.89285 L 268.18304,633.58035 z M 259.37054,633.58035 L 254.43304,633.58035 L 256.83929,639.89285 L 261.96429,639.89285 L 259.37054,633.58035 z M 168.33929,633.89285 L 159.52679,641.26785 L 171.30804,664.14285 L 182.77679,664.14285 L 168.33929,633.89285 z M 154.96429,641.14285 L 149.46429,641.14285 L 150.96429,644.51785 L 154.96429,641.14285 z M 146.58929,641.14285 L 140.93304,641.14285 L 143.99554,648.33035 L 146.43304,648.33035 L 148.80804,646.33035 L 146.58929,641.14285 z M 280.77679,641.95535 L 275.05804,641.95535 L 277.80804,648.26785 L 283.52679,648.26785 L 280.77679,641.95535 z M 271.83929,641.95535 L 266.02679,641.95535 L 268.62054,648.26785 L 274.58929,648.26785 L 271.83929,641.95535 z M 262.80804,641.95535 L 257.62054,641.95535 L 260.02679,648.26785 L 265.40179,648.26785 L 262.80804,641.95535 z M 100.40179,642.26785 L 85.24554,658.95535 L 100.87054,674.8616 L 109.80804,674.8616 L 109.80804,664.14285 L 116.08929,664.14285 C 110.50065,658.66599 104.87825,650.33873 100.40179,642.26785 z M 157.02679,643.33035 L 152.21429,647.3616 L 152.62054,648.33035 L 159.46429,648.33035 L 157.02679,643.33035 z M 332.80804,643.51785 C 324.98302,644.16059 316.89059,645.77351 308.40179,648.9866 L 312.68304,658.08035 L 332.80804,658.08035 L 332.80804,643.51785 z M 159.99554,649.45535 L 153.12054,649.45535 L 156.27679,656.6741 L 163.49554,656.6741 L 159.99554,649.45535 z M 150.12054,649.45535 L 149.71429,649.45535 L 145.83929,652.6741 L 147.58929,656.76785 L 147.58929,656.6741 L 153.18304,656.6741 L 150.12054,649.45535 z M 145.08929,649.45535 L 144.46429,649.45535 L 144.62054,649.8616 L 145.08929,649.45535 z M 377.65179,649.8616 L 341.40179,649.8616 L 341.40179,658.08035 L 375.15179,658.08035 L 377.65179,649.8616 z M 284.40179,650.33035 L 278.68304,650.33035 L 281.43304,656.64285 L 287.15179,656.64285 L 284.40179,650.33035 z M 275.46429,650.33035 L 269.46429,650.33035 L 272.05804,656.64285 L 278.21429,656.64285 L 275.46429,650.33035 z M 266.24554,650.33035 L 260.83929,650.33035 L 263.24554,656.64285 L 268.83929,656.64285 L 266.24554,650.33035 z M 143.49554,654.64285 L 132.12054,664.14285 L 147.37054,664.14285 L 143.49554,654.64285 z M 164.05804,657.7991 L 156.77679,657.7991 L 159.55804,664.14285 L 167.12054,664.14285 L 164.05804,657.7991 z M 153.68304,657.7991 L 148.02679,657.7991 L 150.74554,664.14285 L 156.37054,664.14285 L 153.68304,657.7991 z M 288.05804,658.70535 L 282.33929,658.70535 L 284.71429,664.14285 L 290.43304,664.14285 L 288.05804,658.70535 z M 279.12054,658.70535 L 272.90179,658.70535 L 275.12054,664.14285 L 281.49554,664.14285 L 279.12054,658.70535 z M 269.68304,658.70535 L 264.02679,658.70535 L 266.12054,664.14285 L 271.90179,664.14285 L 269.68304,658.70535 z M 322.33929,677.4866 L 311.71429,677.4866 L 311.71429,688.1116 L 322.33929,688.1116 L 322.33929,677.4866 z M 301.99554,677.4866 L 291.40179,677.4866 L 291.40179,688.1116 L 301.99554,688.1116 L 301.99554,677.4866 z M 281.68304,677.4866 L 271.05804,677.4866 L 271.05804,688.1116 L 281.68304,688.1116 L 281.68304,677.4866 z M 261.33929,677.4866 L 250.74554,677.4866 L 250.74554,688.1116 L 261.33929,688.1116 L 261.33929,677.4866 z M 225.87054,677.4866 L 215.24554,677.4866 L 215.24554,688.1116 L 225.87054,688.1116 L 225.87054,677.4866 z M 205.52679,677.4866 L 194.93304,677.4866 L 194.93304,688.1116 L 205.52679,688.1116 L 205.52679,677.4866 z M 185.21429,677.4866 L 174.58929,677.4866 L 174.58929,688.1116 L 185.21429,688.1116 L 185.21429,677.4866 z M 164.87054,677.4866 L 154.27679,677.4866 L 154.27679,688.1116 L 164.87054,688.1116 L 164.87054,677.4866 z M 99.96429,686.33035 C 97.94304,693.05831 100.62539,694.38784 106.15179,695.2991 C 106.64374,704.28537 110.77696,703.93613 117.27679,703.64285 C 116.51918,703.01149 99.96429,686.33035 99.96429,686.33035 z M 309.83929,698.33035 L 299.21429,698.33035 L 299.21429,708.95535 L 309.83929,708.95535 L 309.83929,698.33035 z M 289.49554,698.33035 L 278.90179,698.33035 L 278.90179,708.95535 L 289.49554,708.95535 L 289.49554,698.33035 z M 269.18304,698.33035 L 258.55804,698.33035 L 258.55804,708.95535 L 269.18304,708.95535 L 269.18304,698.33035 z M 217.65179,698.33035 L 207.02679,698.33035 L 207.02679,708.95535 L 217.65179,708.95535 L 217.65179,698.33035 z M 197.30804,698.33035 L 186.71429,698.33035 L 186.71429,708.95535 L 197.30804,708.95535 L 197.30804,698.33035 z M 176.99554,698.33035 L 166.37054,698.33035 L 166.37054,708.95535 L 176.99554,708.95535 L 176.99554,698.33035 z M 156.65179,698.33035 L 146.05804,698.33035 L 146.05804,708.95535 L 156.65179,708.95535 L 156.65179,698.33035 z"
       style="fill:#000000;fill-opacity:1;stroke:none;stroke-width:0.30000001;stroke-linecap:round;stroke-linejoin:round;stroke-miterlimit:4;stroke-dashoffset:11.83999887" />
  </g>
</svg>
